<svg width="154" height="154" viewBox="0 0 154 154" fill="none" xmlns="http://www.w3.org/2000/svg">
<g filter="url(#filter0_i)">
<circle cx="77" cy="77" r="77" fill="url(#paint0_linear)"/>
<g filter="url(#filter1_d)">
<mask id="mask0" mask-type="alpha" maskUnits="userSpaceOnUse" x="17" y="62" width="120" height="30">
<path d="M118.087 92H118.712V89.1069H118.722L119.762 92H120.302L121.342 89.1069H121.352V92H121.977V88.2512H121.064L120.056 91.1863H120.045L119.011 88.2512H118.087V92ZM114.627 88.8181H115.814V92H116.47V88.8181H117.662V88.2512H114.627V88.8181ZM107 92L137 62H118.944L88.9443 92H107ZM102.699 75.065H66.3818C55.3137 75.065 53.3768 75.6519 48.6362 80.3925C44.2024 84.8263 37.0006 92 37.0006 92H52.7324L56.4856 88.2469C58.9531 85.7794 60.2256 85.5238 65.4068 85.5238H92.2406L102.699 75.065ZM48.1518 78.2531C44.8774 81.3425 37.7531 88.2631 33.9131 92H16.9999C16.9999 92 30.5524 78.4869 38.0849 71.0725C45.8456 63.685 49.7143 62 63.9487 62H115.764L104.545 73.2188H65.0012C54.9993 73.2188 52.7518 73.9119 48.1518 78.2531Z" fill="white"/>
</mask>
<g mask="url(#mask0)">
<path d="M118.087 92H118.712V89.1069H118.722L119.762 92H120.302L121.342 89.1069H121.352V92H121.977V88.2512H121.064L120.056 91.1863H120.045L119.011 88.2512H118.087V92ZM114.627 88.8181H115.814V92H116.47V88.8181H117.662V88.2512H114.627V88.8181ZM107 92L137 62H118.944L88.9443 92H107ZM102.699 75.065H66.3818C55.3137 75.065 53.3768 75.6519 48.6362 80.3925C44.2024 84.8263 37.0006 92 37.0006 92H52.7324L56.4856 88.2469C58.9531 85.7794 60.2256 85.5238 65.4068 85.5238H92.2406L102.699 75.065ZM48.1518 78.2531C44.8774 81.3425 37.7531 88.2631 33.9131 92H16.9999C16.9999 92 30.5524 78.4869 38.0849 71.0725C45.8456 63.685 49.7143 62 63.9487 62H115.764L104.545 73.2188H65.0012C54.9993 73.2188 52.7518 73.9119 48.1518 78.2531Z" fill="url(#paint1_linear)"/>
</g>
</g>
</g>
<defs>
<filter id="filter0_i" x="0" y="0" width="154" height="158" filterUnits="userSpaceOnUse" color-interpolation-filters="sRGB">
<feFlood flood-opacity="0" result="BackgroundImageFix"/>
<feBlend mode="normal" in="SourceGraphic" in2="BackgroundImageFix" result="shape"/>
<feColorMatrix in="SourceAlpha" type="matrix" values="0 0 0 0 0 0 0 0 0 0 0 0 0 0 0 0 0 0 127 0" result="hardAlpha"/>
<feOffset dy="4"/>
<feGaussianBlur stdDeviation="2"/>
<feComposite in2="hardAlpha" operator="arithmetic" k2="-1" k3="1"/>
<feColorMatrix type="matrix" values="0 0 0 0 0 0 0 0 0 0 0 0 0 0 0 0 0 0 0.25 0"/>
<feBlend mode="normal" in2="shape" result="effect1_innerShadow"/>
</filter>
<filter id="filter1_d" x="13" y="62" width="128" height="38" filterUnits="userSpaceOnUse" color-interpolation-filters="sRGB">
<feFlood flood-opacity="0" result="BackgroundImageFix"/>
<feColorMatrix in="SourceAlpha" type="matrix" values="0 0 0 0 0 0 0 0 0 0 0 0 0 0 0 0 0 0 127 0"/>
<feOffset dy="4"/>
<feGaussianBlur stdDeviation="2"/>
<feColorMatrix type="matrix" values="0 0 0 0 0 0 0 0 0 0 0 0 0 0 0 0 0 0 0.25 0"/>
<feBlend mode="normal" in2="BackgroundImageFix" result="effect1_dropShadow"/>
<feBlend mode="normal" in="SourceGraphic" in2="effect1_dropShadow" result="shape"/>
</filter>
<linearGradient id="paint0_linear" x1="77" y1="0" x2="77" y2="154" gradientUnits="userSpaceOnUse">
<stop stop-color="#4F4F4F"/>
<stop offset="0.723958" stop-color="#272727"/>
<stop offset="1"/>
</linearGradient>
<linearGradient id="paint1_linear" x1="76.9999" y1="62" x2="76.9999" y2="92" gradientUnits="userSpaceOnUse">
<stop stop-color="#FF6037"/>
<stop offset="0.625" stop-color="#FF1801"/>
<stop offset="1" stop-color="#C20000"/>
</linearGradient>
</defs>
</svg>
